<svg width="148" height="148" viewBox="0 0 148 148" fill="none" xmlns="http://www.w3.org/2000/svg">
<g clip-path="url(#clip0_21_25)">
<path d="M4.9212 130.4C4.9212 127.452 4.9212 124.645 4.9212 121.842C4.9212 118.721 5.53903 118.113 8.70505 118.097C9.16304 118.097 9.62104 118.097 10.2143 118.097C10.703 115.377 11.1887 112.72 11.659 110.061C13.368 100.39 15.0586 90.7118 16.8076 81.0495C16.992 80.0257 16.7062 79.4539 15.9346 78.8514C12.7871 76.392 9.70403 73.8496 6.55339 71.3963C5.40379 70.5017 4.88431 69.4718 4.89661 67.9931C4.94886 61.1775 4.91505 54.3619 4.9212 47.5463C4.9212 45.1146 5.72653 44.2968 8.1118 44.2876C10.8782 44.2784 13.6446 44.2814 16.4111 44.2876C18.8855 44.2937 19.6693 45.0992 19.6754 47.6293C19.6816 49.7259 19.6754 51.8195 19.6754 54.0207H24.5935C24.5935 51.7703 24.5812 49.5323 24.5966 47.2942C24.612 45.1853 25.4818 44.303 27.5751 44.2907C30.5475 44.2753 33.5168 44.2691 36.4891 44.2907C38.4072 44.306 39.3201 45.2099 39.3416 47.1097C39.3693 49.3632 39.3478 51.6166 39.3478 53.9991H44.2689C44.2689 51.8656 44.2628 49.6829 44.2689 47.5033C44.2781 45.1023 45.0896 44.2937 47.5026 44.2876C50.3704 44.2814 53.2413 44.2722 56.1092 44.2907C58.1072 44.306 59.0139 45.2068 59.0201 47.2081C59.0355 54.2297 59.0078 61.2513 59.0416 68.2698C59.0478 69.5764 58.5314 70.5017 57.5385 71.2856C54.4032 73.7573 51.3141 76.2905 48.1511 78.7315C47.2198 79.4508 46.9892 80.1333 47.2044 81.32C49.3468 93.1497 51.4063 104.995 53.4903 116.834C53.561 117.23 53.6717 117.618 53.7823 118.097C54.6614 118.097 55.476 118.079 56.2875 118.1C58.0764 118.153 59.0016 119.072 59.017 120.889C59.0447 124.003 59.0232 127.117 59.0232 130.407C59.9515 130.407 60.7629 130.351 61.559 130.419C62.9791 130.539 63.889 131.353 63.9074 132.777C63.9689 136.927 63.9689 141.08 63.9074 145.227C63.8859 146.654 62.9699 147.441 61.5621 147.598C61.1564 147.644 60.7445 147.616 60.3326 147.616C41.4287 147.616 22.5249 147.616 3.62098 147.616C0.682428 147.616 -0.00610352 146.934 -0.00610352 144.022C-0.00610352 140.641 -0.00610352 137.259 -0.00610352 133.874C-0.00610352 131.132 0.707018 130.413 3.42426 130.394C3.86996 130.391 4.31873 130.394 4.91198 130.394L4.9212 130.4ZM42.2187 81.2585H21.7318C19.5709 93.4971 17.4162 105.708 15.243 118.023H48.7013C46.5312 105.717 44.3765 93.5063 42.2156 81.2585H42.2187ZM29.5147 49.2709C29.5147 51.6104 29.527 53.8085 29.5116 56.0035C29.4962 58.174 28.6171 59.0378 26.4132 59.0471C23.5976 59.0594 20.782 59.0563 17.9664 59.0471C15.5811 59.0409 14.7666 58.217 14.7604 55.8068C14.7543 53.6272 14.7604 51.4506 14.7604 49.2863H9.93457V66.333H54.0006V49.2863H49.1931C49.1931 51.6012 49.2085 53.8393 49.1901 56.0804C49.1716 58.1586 48.2802 59.0378 46.1716 59.0471C43.2546 59.0624 40.3345 59.0655 37.4174 59.0471C35.3303 59.0348 34.4543 58.1432 34.442 56.0435C34.4266 53.8085 34.4389 51.5705 34.4389 49.274H29.5208L29.5147 49.2709ZM5.04415 135.375V142.624H58.931V135.375H5.04415ZM9.9069 130.29H54.0375V123.102H9.9069V130.29ZM14.5145 71.4301C16.408 72.9488 17.9849 74.2892 19.6509 75.5066C20.2164 75.9216 21.0095 76.2321 21.7011 76.2383C28.5556 76.2905 35.4102 76.2721 42.2648 76.2659C42.6705 76.2659 43.1931 76.3643 43.4667 76.1583C45.4216 74.6796 47.3243 73.1333 49.4636 71.4301H14.5145Z" fill="#DAA520"/>
<path d="M118.415 138.415C118.151 136.454 117.945 134.944 117.73 133.352C120.96 132.755 124.163 132.371 127.249 131.544C130.938 130.557 134.546 129.26 138.137 127.95C139.206 127.56 140.178 126.767 141.044 125.989C143.058 124.184 143.341 121.999 141.444 120.068C139.941 118.537 138.066 117.23 136.132 116.28C130.028 113.286 123.373 111.986 116.82 110.39C108.978 108.481 101.113 106.652 93.3482 104.472C90.5449 103.685 87.7908 102.293 85.3748 100.645C79.5069 96.6452 79.7467 89.4361 85.6729 85.4857C89.1433 83.1738 93.1054 82.1532 97.089 81.1971C103.049 79.7676 109.012 78.3442 114.957 76.847C116.082 76.5642 117.155 76.0078 118.2 75.4759C121.446 73.825 123.21 71.3656 123.029 67.5013C122.826 63.2066 122.983 58.8934 122.983 54.5895C122.983 54.0976 122.983 53.6026 122.983 52.7634C121.799 53.8947 120.862 54.7954 119.851 55.7608C118.753 54.5618 117.702 53.412 116.645 52.2561C119.144 49.7813 121.784 47.1713 124.566 44.4137C110.266 43.141 102.232 31.2651 103.4 20.0011C104.601 8.40502 114.207 -0.11372 125.804 2.70655e-05C137.091 0.1107 146.654 9.11518 147.527 20.4407C148.366 31.3297 140.749 43.0518 126.425 44.3891C129.146 47.1006 131.777 49.7229 134.488 52.4252C133.329 53.4981 132.213 54.5311 130.968 55.6839C130.096 54.8569 129.124 53.9347 127.898 52.7757V57.0243C127.898 60.4059 127.729 63.7999 127.935 67.1693C128.343 73.8804 125.036 78.1966 119.131 80.4285C114.471 82.1901 109.547 83.2661 104.718 84.5665C100.332 85.7501 95.8964 86.7553 91.5285 88.0004C90.2406 88.3662 88.9865 89.1317 87.9291 89.9802C85.3471 92.0461 85.3072 94.9359 88.1566 96.5468C91.2826 98.3145 94.6515 99.8639 98.1034 100.795C106.243 102.994 114.502 104.74 122.7 106.72C128.568 108.137 134.454 109.603 139.744 112.619C141.837 113.812 143.882 115.358 145.44 117.178C148.815 121.113 148.197 126.385 144.257 129.764C141.118 132.454 137.374 134.016 133.44 135.018C128.546 136.266 123.588 137.259 118.415 138.415ZM142.649 22.15C142.649 12.6782 134.909 4.92805 125.448 4.92497C115.978 4.92497 108.228 12.6659 108.228 22.1315C108.228 31.6033 115.965 39.3535 125.429 39.3596C134.891 39.3627 142.652 31.6095 142.649 22.15Z" fill="#DAA520"/>
<path d="M105.61 134.523C108.09 134.299 110.365 134.093 112.808 133.874C112.99 135.439 113.162 136.945 113.365 138.716C110.897 138.953 108.493 139.183 105.926 139.429C105.816 137.723 105.72 136.211 105.61 134.526V134.523Z" fill="#DAA520"/>
<path d="M68.9576 135.43H76.135V140.241H68.9576V135.43Z" fill="#DAA520"/>
<path d="M88.4978 135.454V140.155H81.2805V135.454H88.4978Z" fill="#DAA520"/>
<path d="M100.741 139.832H93.5757V135.141H100.741V139.832Z" fill="#DAA520"/>
<path d="M113.983 26.2018C115.234 24.8675 116.27 23.7608 117.545 22.3989C118.501 23.5794 119.393 24.6831 120.379 25.8974C124.935 21.4459 129.198 17.2834 133.437 13.1393C134.651 14.2706 135.791 15.3312 136.996 16.4564C135.573 17.8706 134.282 19.1679 132.976 20.4529C129.585 23.7854 126.195 27.1179 122.792 30.4381C121.135 32.0582 120.001 32.0367 118.341 30.4196C116.881 28.9963 115.409 27.5821 113.98 26.2018H113.983Z" fill="#DAA520"/>
</g>
<defs>
<clipPath id="clip0_21_25">
<rect width="147.632" height="147.632" fill="white"/>
</clipPath>
</defs>
</svg>
