<svg width="148" height="149" viewBox="0 0 148 149" fill="none" xmlns="http://www.w3.org/2000/svg">
<path d="M72.2087 148.748C71.8357 148.631 71.4657 148.496 71.0868 148.4C66.0052 147.087 62.2963 142.546 62.0785 137.358C61.8517 131.987 65.0594 127.21 70.0872 125.434C70.5556 125.269 71.0331 125.134 71.5552 124.969V115.319C49.3284 112.038 36.5902 99.3163 33.2692 76.8692H28.4502C27.4924 81.3226 25.1113 84.8494 21.0144 87.0626C17.9202 88.733 14.626 89.1649 11.1886 88.4241C4.43008 86.9666 -0.257577 80.7468 0.0109714 73.6003C0.270568 66.7237 5.62363 61.0197 12.7103 60.063C19.9194 59.0914 25.911 63.5688 28.5159 71.9149H33.5169C34.1942 62.6421 37.5242 54.47 43.5307 47.5244C36.1427 40.105 28.8083 32.7396 21.3128 25.2152C18.9287 26.4988 16.106 26.8736 13.1997 25.713C11.1468 24.8943 9.54742 23.5088 8.43742 21.5805C6.21444 17.7148 6.95146 12.8085 10.1979 9.77659C13.4652 6.72965 18.3558 6.33979 22.0349 8.83492C26.1497 11.6269 27.1791 16.1134 25.0397 21.5775C32.4158 28.9999 39.7502 36.3803 47.1681 43.8417C50.5518 40.8967 54.2965 38.4856 58.4561 36.7492C62.6156 35.0158 66.9541 34.0291 71.5194 33.6992V23.7697C71.1435 23.6497 70.6869 23.5088 70.2334 23.3558C65.1131 21.6075 61.8517 16.8151 62.0785 11.387C62.2993 6.13586 66.053 1.59844 71.23 0.31489C71.5642 0.233918 71.8835 0.107962 72.2087 0C73.4023 0 74.5958 0 75.7894 0C76.4488 0.203929 77.1112 0.398861 77.7647 0.614785C82.6761 2.24622 85.9733 6.90059 85.9286 12.1338C85.8838 17.256 82.5031 21.8444 77.6244 23.4008C77.2455 23.5208 76.8665 23.6437 76.4398 23.7817V33.6782C85.6749 34.362 93.8418 37.7298 100.824 43.8357C104.261 40.3659 107.618 36.9771 111.017 33.5463C108.83 28.2591 109.904 23.5988 114.046 20.8127C117.823 18.2696 122.875 18.7644 126.094 21.9943C129.356 25.2662 129.827 30.4184 127.207 34.2241C124.385 38.3296 119.795 39.3673 114.63 37.154C111.196 40.5428 107.8 43.8957 104.318 47.3295C107.296 50.7873 109.689 54.551 111.42 58.7285C113.15 62.909 114.129 67.2665 114.46 71.8669H119.533C120.533 67.2665 123.033 63.6528 127.351 61.4815C130.439 59.9251 133.706 59.5622 137.066 60.3839C143.863 62.0453 148.396 68.3042 147.978 75.4117C147.575 82.2793 142.01 88.0193 135.025 88.709C128.98 89.3058 121.523 85.8001 119.518 76.8422H114.481C113.804 86.073 110.495 94.2511 104.494 101.206C107.905 104.594 111.28 107.944 114.839 111.48C117.125 110.263 119.948 109.873 122.851 111.03C124.904 111.849 126.506 113.228 127.616 115.157C129.839 119.013 129.102 123.95 125.871 126.961C122.553 130.053 117.611 130.412 113.914 127.83C109.862 124.999 108.863 120.498 111.014 115.205C107.609 111.768 104.255 108.379 100.824 104.915C93.8597 110.958 85.7615 114.383 76.4727 115.028V124.966C76.7591 125.062 77.1172 125.185 77.4812 125.299C82.7119 126.952 86.0837 131.708 85.9196 137.205C85.7615 142.519 82.0018 147.12 76.7621 148.421C76.4309 148.502 76.1116 148.634 75.7894 148.739H72.2087V148.748ZM73.8767 110.385C83.3415 110.2 91.401 107 98.3265 100.78C99.6723 99.5712 99.9557 98.4316 99.544 96.7642C97.0345 86.6068 90.84 79.9521 80.9246 76.8062C79.7758 76.4403 78.9373 75.8585 78.8031 74.602C78.6748 73.4084 79.3402 72.6736 80.3249 72.0918C84.9737 69.3478 86.8267 64.9243 85.6063 59.5952C84.4217 54.428 79.7221 50.5534 74.4496 50.3944C68.9294 50.2295 64.1254 53.7113 62.5589 59.0104C60.9565 64.4355 62.8185 69.1229 67.7836 72.1698C67.9537 72.2748 68.1298 72.3677 68.2849 72.4907C69.6724 73.6213 69.4964 75.6456 67.909 76.4703C67.3868 76.7432 66.79 76.8692 66.229 77.0701C56.2987 80.5939 50.2922 87.5214 48.2602 97.9308C48.0841 98.8365 48.296 99.3973 48.9345 100.015C55.9526 106.814 64.3492 110.2 73.8767 110.382V110.385ZM103.739 93.9812C111.963 82.8491 113.097 62.2193 98.6488 48.2412C84.6216 34.6679 61.8278 35.1357 48.1766 49.4437C34.5791 63.6948 36.5395 83.7608 44.2737 93.9392C47.0487 84.5885 52.8136 77.8318 61.5056 73.6033C54.3174 65.3232 57.3878 54.6889 62.7886 49.9176C69.1055 44.3395 78.3406 44.1926 84.7917 49.5337C90.1627 53.9812 94.0566 64.7834 86.5134 73.6153C95.2084 77.8378 100.949 84.6185 103.736 93.9812H103.739ZM23.867 74.425C23.8998 69.1259 19.615 64.7924 14.3365 64.7804C9.12371 64.7684 4.82694 69.0209 4.77621 74.2451C4.72549 79.5622 8.9775 83.9377 14.2291 83.9707C19.5136 84.0037 23.8342 79.7242 23.867 74.428V74.425ZM133.638 64.7774C128.371 64.7864 124.095 69.1349 124.128 74.443C124.161 79.6762 128.434 83.9557 133.632 83.9647C138.913 83.9737 143.207 79.6762 143.219 74.368C143.228 69.0779 138.919 64.7654 133.638 64.7744V64.7774ZM74.0289 4.80732C70.0693 4.78933 66.8407 8.03719 66.8437 12.0378C66.8437 15.9394 70.0782 19.1843 73.9602 19.1843C77.8751 19.1843 81.0947 16.0114 81.1484 12.1008C81.2021 8.11517 77.9885 4.82232 74.0289 4.80432V4.80732ZM81.1544 136.704C81.1544 132.803 77.9169 129.555 74.0378 129.561C70.0573 129.564 66.8288 132.812 66.8497 136.791C66.8676 140.702 70.0782 143.923 73.9692 143.938C77.9288 143.956 81.1573 140.705 81.1544 136.704ZM21.4769 16.7462C21.4441 14.1251 19.3047 12.0018 16.6968 12.0048C14.0411 12.0048 11.8778 14.245 11.9435 16.9201C12.0091 19.5292 14.1873 21.6255 16.7952 21.5895C19.3733 21.5535 21.5098 19.3432 21.474 16.7492L21.4769 16.7462ZM124.119 28.733C124.089 26.1179 121.944 23.9976 119.333 23.9976C116.734 23.9976 114.592 26.1539 114.589 28.766C114.589 31.45 116.782 33.6273 119.446 33.5763C122.045 33.5283 124.149 31.3481 124.122 28.73L124.119 28.733ZM119.336 124.744C121.938 124.753 124.092 122.624 124.119 120.009C124.149 117.334 121.965 115.142 119.291 115.163C116.695 115.184 114.568 117.358 114.586 119.97C114.604 122.594 116.731 124.732 119.333 124.741L119.336 124.744Z" fill="#DAA520"/>
<path d="M131.039 19.3671C130.481 18.9143 129.544 18.5064 129.26 17.8257C128.974 17.1389 129.022 15.9063 129.469 15.3845C131.074 13.5042 132.859 11.7618 134.685 10.0884C135.589 9.26064 136.738 9.36861 137.663 10.2023C138.582 11.033 138.895 12.2326 138.093 13.1473C136.326 15.1476 134.369 16.9799 132.453 18.8453C132.199 19.0942 131.731 19.1242 131.042 19.3671H131.039Z" fill="#DAA520"/>
<path d="M19.1257 126.034C22.4378 122.738 25.6813 119.499 28.9367 116.276C30.2078 115.016 31.4103 114.857 32.4994 115.745C33.7377 116.755 33.6989 118.264 32.3532 119.643C29.1515 122.924 25.9319 126.187 22.6795 129.498C24.7294 135.649 23.6075 139.958 19.1913 142.6C15.2884 144.937 10.2338 144.163 7.22304 140.771C4.21231 137.376 3.94973 132.401 6.59046 128.739C9.44602 124.781 14.1009 123.77 19.1227 126.037L19.1257 126.034ZM14.268 129.561C11.672 129.585 9.54747 131.753 9.55344 134.368C9.56239 137.04 11.7794 139.206 14.447 139.146C17.0251 139.086 19.1406 136.86 19.0869 134.263C19.0302 131.642 16.8729 129.537 14.268 129.561Z" fill="#DAA520"/>
<path d="M35.4952 115.37C34.9342 114.914 34.0271 114.53 33.7735 113.885C33.493 113.172 33.484 111.942 33.9227 111.426C35.528 109.54 37.3153 107.795 39.1444 106.118C40.1172 105.227 41.2958 105.401 42.2238 106.337C43.101 107.222 43.301 108.391 42.4714 109.312C40.7796 111.195 38.9505 112.953 37.1273 114.71C36.8051 115.022 36.2411 115.079 35.4952 115.367V115.37Z" fill="#DAA520"/>
</svg>
