<svg width="128" height="122" viewBox="0 0 128 122" fill="none" xmlns="http://www.w3.org/2000/svg">
<path d="M103.441 121.617C97.4411 118.469 91.7508 115.486 86.0606 112.493C82.3358 110.531 78.6318 108.522 74.8864 106.6C67.6382 102.882 60.359 102.903 53.1365 106.673C44.4541 111.209 35.8027 115.807 27.1409 120.38C26.4651 120.737 25.7738 121.063 24.6492 121.628C25.5159 116.46 26.3206 111.654 27.1306 106.859C28.183 100.656 29.4469 94.478 30.2414 88.2382C31.17 80.9523 28.8588 74.5882 23.6483 69.4151C16.8025 62.616 9.87411 55.9049 2.97152 49.1576C2.17705 48.386 1.34131 47.6559 0 46.4234C3.95171 45.8227 7.20697 45.3101 10.4622 44.8389C17.8549 43.7618 25.2785 42.8349 32.6454 41.5973C40.4457 40.282 46.1875 35.9374 49.7368 28.8224C54.4675 19.3461 59.1208 9.83358 63.9754 0C64.4603 0.771566 64.8369 1.27904 65.1155 1.83312C69.16 10.0252 73.4264 18.1137 77.1718 26.4456C81.5775 36.2481 88.996 41.1519 99.4943 42.2756C108.285 43.2181 117.019 44.7198 125.774 45.9884C126.346 46.0713 126.903 46.3043 127.419 46.4597C124.566 49.4113 121.806 52.3526 118.959 55.1955C114.14 60.0009 109.198 64.6873 104.426 69.5342C99.0609 74.9765 96.8581 81.5789 98.0756 89.1599C99.6749 99.1178 101.434 109.055 103.111 118.997C103.24 119.748 103.302 120.509 103.436 121.628L103.441 121.617ZM93.8866 108.49C92.5246 100.542 91.3897 93.23 89.9916 85.9753C88.5987 78.7619 90.3682 72.7551 95.7799 67.7114C100.82 63.0147 105.659 58.1057 110.576 53.2795C111.014 52.8497 111.38 52.3474 111.989 51.6328C103.797 50.4211 95.9863 49.2508 88.1757 48.1115C82.1243 47.2261 77.6825 44.088 74.938 38.5887C72.5185 33.7366 70.1351 28.8586 67.731 23.9962C66.5754 21.6608 65.4095 19.3254 64.0682 16.6379C60.3125 24.2551 56.7787 31.4219 53.2397 38.5835C50.6551 43.8187 46.4455 46.9671 40.7655 48.0028C36.9686 48.6967 33.1201 49.1058 29.2973 49.6702C25.0103 50.302 20.7232 50.9596 16.0493 51.669C16.7096 52.3629 17.0398 52.7409 17.3958 53.0879C22.6217 58.2144 27.8425 63.3461 33.0839 68.4571C37.4484 72.7136 39.3984 77.8091 38.4337 83.9039C37.825 87.7359 37.1543 91.5574 36.5146 95.379C35.813 99.5683 35.1217 103.763 34.3376 108.465C41.3124 104.793 47.8384 101.546 54.1735 97.963C60.8491 94.188 67.277 94.1621 73.963 97.9371C80.3032 101.515 86.8292 104.767 93.8814 108.485L93.8866 108.49Z" fill="#DAA520"/>
<path d="M93.8041 56.8472C89.7389 61.3057 85.5756 65.9869 81.2628 70.5283C80.0866 71.7659 79.6274 72.7912 79.9731 74.5725C81.1699 80.7295 82.1089 86.9383 83.2283 93.6131C79.4985 91.6506 76.0833 89.833 72.6526 88.0517C69.841 86.5862 67.014 84.0488 64.1817 84.0333C61.3598 84.0178 58.5069 86.5137 55.6954 87.9636C52.1925 89.7708 48.7205 91.635 44.9494 93.6235C46.074 86.9538 47.0645 80.5845 48.2666 74.2567C48.5761 72.641 48.1376 71.709 47.0387 70.6785C43.1025 66.9553 39.2591 63.1233 35.3229 59.395C34.6574 58.7684 33.6979 58.4525 32.8776 57.9968L33.6153 57.0078C39.8576 56.0705 46.0895 55.04 52.3472 54.2633C54.0806 54.0458 54.8596 53.269 55.5457 51.8398C58.2542 46.1955 61.0554 40.5977 64.0682 34.4822C65.3786 37.1076 66.4774 39.2876 67.5608 41.4781C68.9743 44.3313 70.6716 47.0913 71.7085 50.0792C72.8538 53.3778 75.036 54.3461 78.2087 54.6724C83.6565 55.2368 89.0682 56.1689 93.7937 56.8421L93.8041 56.8472Z" fill="#DAA520"/>
</svg>
